<mxfile host="Electron" modified="2023-06-16T11:18:04.627Z" agent="Mozilla/5.0 (Macintosh; Intel Mac OS X 10_15_7) AppleWebKit/537.36 (KHTML, like Gecko) draw.io/21.2.8 Chrome/112.0.5615.165 Electron/24.2.0 Safari/537.36" etag="lPxcbBJDIV0fmqmyAmOe" version="21.2.8" type="device">
  <diagram name="Page-1" id="jgHbtjzMasFGtNTMjIiu">
    <mxGraphModel dx="954" dy="1425" grid="1" gridSize="10" guides="1" tooltips="1" connect="1" arrows="1" fold="1" page="1" pageScale="1" pageWidth="1043" pageHeight="815" math="0" shadow="0">
      <root>
        <mxCell id="0" />
        <mxCell id="1" parent="0" />
        <mxCell id="LcfMPnQHE8L-xutV40o3-8" style="edgeStyle=orthogonalEdgeStyle;rounded=0;orthogonalLoop=1;jettySize=auto;html=1;entryX=0;entryY=0.5;entryDx=0;entryDy=0;" edge="1" parent="1" source="JHtc7Qgezee9kOvQ36Wa-1" target="LcfMPnQHE8L-xutV40o3-4">
          <mxGeometry relative="1" as="geometry" />
        </mxCell>
        <mxCell id="JHtc7Qgezee9kOvQ36Wa-1" value="Gateway" style="rounded=0;whiteSpace=wrap;html=1;" parent="1" vertex="1">
          <mxGeometry x="240" y="95" width="120" height="60" as="geometry" />
        </mxCell>
        <mxCell id="JHtc7Qgezee9kOvQ36Wa-2" value="DB" style="shape=cylinder3;whiteSpace=wrap;html=1;boundedLbl=1;backgroundOutline=1;size=15;" parent="1" vertex="1">
          <mxGeometry x="540" y="130" width="60" height="80" as="geometry" />
        </mxCell>
        <mxCell id="LcfMPnQHE8L-xutV40o3-6" style="edgeStyle=orthogonalEdgeStyle;rounded=0;orthogonalLoop=1;jettySize=auto;html=1;" edge="1" parent="1" source="JHtc7Qgezee9kOvQ36Wa-5" target="LcfMPnQHE8L-xutV40o3-2">
          <mxGeometry relative="1" as="geometry" />
        </mxCell>
        <mxCell id="LcfMPnQHE8L-xutV40o3-7" value="Secure websocket" style="edgeLabel;html=1;align=center;verticalAlign=middle;resizable=0;points=[];" vertex="1" connectable="0" parent="LcfMPnQHE8L-xutV40o3-6">
          <mxGeometry x="-0.2" relative="1" as="geometry">
            <mxPoint as="offset" />
          </mxGeometry>
        </mxCell>
        <mxCell id="LcfMPnQHE8L-xutV40o3-9" style="edgeStyle=orthogonalEdgeStyle;rounded=0;orthogonalLoop=1;jettySize=auto;html=1;entryX=0;entryY=0.5;entryDx=0;entryDy=0;entryPerimeter=0;" edge="1" parent="1" source="JHtc7Qgezee9kOvQ36Wa-5" target="JHtc7Qgezee9kOvQ36Wa-2">
          <mxGeometry relative="1" as="geometry">
            <Array as="points">
              <mxPoint x="300" y="200" />
              <mxPoint x="450" y="200" />
              <mxPoint x="450" y="170" />
            </Array>
          </mxGeometry>
        </mxCell>
        <mxCell id="LcfMPnQHE8L-xutV40o3-10" style="edgeStyle=orthogonalEdgeStyle;rounded=0;orthogonalLoop=1;jettySize=auto;html=1;exitX=0.25;exitY=0;exitDx=0;exitDy=0;entryX=0.25;entryY=1;entryDx=0;entryDy=0;" edge="1" parent="1" source="JHtc7Qgezee9kOvQ36Wa-5" target="JHtc7Qgezee9kOvQ36Wa-1">
          <mxGeometry relative="1" as="geometry" />
        </mxCell>
        <mxCell id="JHtc7Qgezee9kOvQ36Wa-5" value="ACS" style="rounded=0;whiteSpace=wrap;html=1;" parent="1" vertex="1">
          <mxGeometry x="240" y="240" width="120" height="60" as="geometry" />
        </mxCell>
        <mxCell id="LcfMPnQHE8L-xutV40o3-2" value="3rd Party" style="rounded=0;whiteSpace=wrap;html=1;" vertex="1" parent="1">
          <mxGeometry x="390" y="340" width="120" height="60" as="geometry" />
        </mxCell>
        <mxCell id="LcfMPnQHE8L-xutV40o3-3" value="E Secure Hosting" style="rounded=0;whiteSpace=wrap;html=1;" vertex="1" parent="1">
          <mxGeometry x="240" y="10" width="120" height="60" as="geometry" />
        </mxCell>
        <mxCell id="LcfMPnQHE8L-xutV40o3-4" value="SMS, Email Provider" style="rounded=0;whiteSpace=wrap;html=1;" vertex="1" parent="1">
          <mxGeometry x="410" y="-50" width="120" height="60" as="geometry" />
        </mxCell>
      </root>
    </mxGraphModel>
  </diagram>
</mxfile>
